<svg xmlns="http://www.w3.org/2000/svg" width="128" height="128" viewBox="0 0 128 128">
  <defs>
    <linearGradient id="pmg" x1="0" y1="0" x2="0" y2="1">
      <stop offset="0%" stop-color="#7ce05a"/>
      <stop offset="100%" stop-color="#2f7d24"/>
    </linearGradient>
  </defs>
  <ellipse cx="64" cy="114" rx="36" ry="9" fill="#000" opacity="0.18"/>
  <rect x="60" y="60" width="8" height="52" rx="4" fill="#3f7d2a"/>
  <path d="M64 98 C42 94 30 78 28 58 C50 60 62 74 64 98 Z" fill="url(#pmg)"/>
  <path d="M64 98 C86 94 98 78 100 58 C78 60 66 74 64 98 Z" fill="url(#pmg)"/>
  <circle cx="64" cy="50" r="30" fill="url(#pmg)"/>
  <circle cx="42" cy="56" r="19" fill="url(#pmg)"/>
  <circle cx="86" cy="56" r="19" fill="url(#pmg)"/>
  <!-- ripe berries -->
  <circle cx="50" cy="48" r="7" fill="#e01e3c"/>
  <circle cx="76" cy="44" r="7" fill="#e01e3c"/>
  <circle cx="64" cy="62" r="7" fill="#e01e3c"/>
  <circle cx="48" cy="46" r="2.4" fill="#ffd0d0"/>
  <circle cx="74" cy="42" r="2.4" fill="#ffd0d0"/>
</svg>
